<svg id="Layer_1" data-name="Layer 1" xmlns="http://www.w3.org/2000/svg" viewBox="0 0 100 100"><defs><style>.cls-1{fill:#3FA138;}</style></defs><title>address-logo</title><path class="cls-1" d="M49.9,30.18a10,10,0,0,0-10,10.18,10,10,0,1,0,10-10.18Z"/><path class="cls-1" d="M50,2.5A47.5,47.5,0,1,0,97.5,50,47.5,47.5,0,0,0,50,2.5Zm18.55,48c-5.66,9.61-11.41,19.18-17.13,28.76-.39.65-.87,1.24-1.6,2.27-2.11-3.54-4-6.68-5.88-9.83-4.19-7-8.29-14.07-12.58-21-6.45-10.41-1.66-25.39,9.5-30.35C53,15,67.93,21.1,71.12,36.06A19.92,19.92,0,0,1,68.55,50.53Z"/><path class="cls-1" d="M50,100a50,50,0,1,1,50-50A50.06,50.06,0,0,1,50,100ZM50,1A49,49,0,1,0,99,50,49.05,49.05,0,0,0,50,1Z"/></svg>
