<svg id="Layer_1" data-name="Layer 1" xmlns="http://www.w3.org/2000/svg" viewBox="0 0 100 100"><defs><style>.cls-1{fill:#e9f8c3;}</style></defs><title>breakfast-icon</title><path class="cls-1" d="M41.13,51.76c.1.67.38,1,1.12.93a12.84,12.84,0,0,1,2.32,0c.83.07,1-.24.94-1C45,46,44.53,40.39,44,34.76c-.11-1.24-.13-1.25-1.4-1.25H41.51v0c-.86.05-1.71.11-2.57.14-.49,0-.65.24-.56.71.14.76.25,1.53.37,2.29.53,3.38,1.06,6.77,1.6,10.15C40.61,48.43,40.89,50.09,41.13,51.76Z"/><path class="cls-1" d="M52.85,33.6c-1,0-2,0-2.92,0s-2,0-2.92,0c-.73,0-1,.18-.94,1q.8,8.67,1.5,17.35c0,.54.24.76.79.75,1,0,2,0,2.92,0,.55,0,.74-.19.77-.73.1-1.48.26-3,.39-4.44Q53,41,53.66,34.45C53.72,33.8,53.47,33.58,52.85,33.6Z"/><path class="cls-1" d="M42.76,58.05H55.89c2.36,0,2.33,0,2.35-2.36,0-.79-.28-1-1-.95-2.43,0-4.86,0-7.29,0-2.14,0-4.29,0-6.43,0-2.3,0-2-.35-2,2.07C41.48,58,41.52,58.05,42.76,58.05Z"/><path class="cls-1" d="M57.94,31.36a4,4,0,0,0-.55-.42l-6.26-3.35a2.82,2.82,0,0,0-2.86.12l-2.85,1.56-3.57,1.9.06.19Z"/><path class="cls-1" d="M50.06,24.69c.24-.32.68-.67.64-1s-.56-.85-.8-.81a1.33,1.33,0,0,0-.9.83c-.06.24.43.62.68.94Z"/><path class="cls-1" d="M50,2.5A47.5,47.5,0,1,0,97.5,50,47.5,47.5,0,0,0,50,2.5ZM71.21,49.21a5.38,5.38,0,0,1-5.07,5.19c-.72,0-1.22-.26-1.26-1s.42-1,1.14-1.11A3.3,3.3,0,0,0,69.14,49c0-4,0-8.07,0-12.1a3.3,3.3,0,0,0-3.33-3.41c-2.18-.07-2.22-.08-2.57,2.06-.69,4.28-1.33,8.57-2,12.86-.2,1.24-.44,2.48-.63,3.72a29,29,0,0,0,.79,11.54c.74,2.9,1.29,5.85,1.92,8.78.27,1.22.55,2.45.79,3.68a2.4,2.4,0,0,1-2.49,3H38.12a2.5,2.5,0,0,1-2.49-3.26c1.22-5.43,2.56-10.84,3.55-16.31a26.29,26.29,0,0,0,0-6.92c-.23-2.59-.77-5.14-1.22-7.7a2.74,2.74,0,0,0-.51-1.23q-4.12-5.1-8.29-10.16c-.36-.45-.75-1-.36-1.44a2,2,0,0,1,1.36-.63c2-.07,4.06,0,6.09,0a2.84,2.84,0,0,0,1.23-.28c3.32-1.76,6.63-3.55,10-5.35a10.75,10.75,0,0,1-.56-1.73,2.81,2.81,0,0,1,1.61-2.95,3,3,0,0,1,3.5.5A2.89,2.89,0,0,1,52.58,25c-.3.58-.22.84.33,1.13C56,27.75,59,29.42,62.06,31a5.28,5.28,0,0,0,2.21.42,8.64,8.64,0,0,1,4,.66,5.07,5.07,0,0,1,2.91,4.61C71.26,40.86,71.25,45,71.21,49.21Z"/><path class="cls-1" d="M35.92,33.55c-1.24,0-2.47,0-3.7,0l-.11.25,4.7,5.77.31-.13c-.3-1.84-.59-3.69-.9-5.53C36.2,33.77,36,33.55,35.92,33.55Z"/><path class="cls-1" d="M60.42,33.6c-1.23,0-2.46,0-3.68,0-.75,0-1,.25-1,1-.38,4.38-.81,8.76-1.21,13.14-.15,1.61-.26,3.23-.4,5,1.2,0,2.28,0,3.36,0,.71,0,1-.2,1.09-.94C59,48.36,59.6,45,60.14,41.61c.37-2.34.73-4.68,1.11-7C61.36,33.91,61.19,33.57,60.42,33.6Z"/><path class="cls-1" d="M44.65,60.11c-.91,0-1.83,0-2.74,0a.8.8,0,0,0-.87.75q-1.66,7.65-3.37,15.29c-.14.66.08.9.73.88.8,0,1.6,0,2.4,0h0a20.21,20.21,0,0,1,2.06,0c.82.08,1.09-.27,1.15-1,.19-2.28.44-4.55.66-6.82.27-2.73.52-5.46.8-8.19C45.54,60.37,45.36,60.07,44.65,60.11Z"/><path class="cls-1" d="M52.64,65.89c-.16-1.64-.35-3.29-.5-4.93,0-.59-.26-.87-.9-.84a26.22,26.22,0,0,1-2.66,0c-.73,0-1,.25-1,1-.14,2-.38,4-.57,6-.28,3-.55,6-.84,9-.07.63.11.89.78.87,1,0,2,0,3,0s1.89-.06,2.83,0,1-.25.93-1C53.29,72.65,53,69.27,52.64,65.89Z"/><path class="cls-1" d="M57.78,60.13c-1,0-1.94,0-2.91,0-.56,0-.75.22-.69.79q.81,7.75,1.56,15.51c0,.47.2.66.68.64.8,0,1.6,0,2.4,0h2.06c1.17,0,1.28-.12,1-1.3-.31-1.36-.64-2.72-.95-4.08-.8-3.62-1.6-7.24-2.37-10.86C58.47,60.32,58.26,60.13,57.78,60.13Z"/><path class="cls-1" d="M50,100a50,50,0,1,1,50-50A50.06,50.06,0,0,1,50,100ZM50,1A49,49,0,1,0,99,50,49.05,49.05,0,0,0,50,1Z"/></svg>