<svg id="Layer_1" data-name="Layer 1" xmlns="http://www.w3.org/2000/svg" viewBox="0 0 99 99"><defs><style>.cls-1{fill:#a06997;}.cls-2{fill:none;stroke:#a06997;stroke-miterlimit:10;}</style></defs><title>email-logo-straight</title><path class="cls-1" d="M76.28,36.28a9.67,9.67,0,0,0-.68-1.57l-4.19,5Q63.72,49.07,56,58.37a7.71,7.71,0,0,1-5.07,2.92A7.93,7.93,0,0,1,43.42,58Q35,47.69,26.53,37.38c-.67-.83-1.36-1.64-2.11-2.54a5.35,5.35,0,0,0-1,3.48q0,7.89,0,15.77c0,2.6,0,5.2,0,7.79,0,3.27,2.09,5.48,5.12,5.49q21.42,0,42.83,0a6.19,6.19,0,0,0,3-1c1.73-1,2.14-2.84,2.13-4.75,0-7.73,0-15.46,0-23.2A9.6,9.6,0,0,0,76.28,36.28Z" transform="translate(-0.5 -0.5)"/><path class="cls-1" d="M47.35,55.14c1.57,1.91,3.44,1.9,5,0q9-10.81,17.91-21.65c.16-.2.3-.41.55-.75H29.06a7.86,7.86,0,0,0,.49.69Q38.44,44.28,47.35,55.14Z" transform="translate(-0.5 -0.5)"/><path class="cls-1" d="M50,2.5A47.5,47.5,0,1,0,97.5,50,47.5,47.5,0,0,0,50,2.5Zm31.33,60a9.76,9.76,0,0,1-9.61,9.69q-21.72,0-43.45,0a9.65,9.65,0,0,1-9.37-7.75A12.74,12.74,0,0,1,18.67,62q0-12.23,0-24.46a9.75,9.75,0,0,1,9.65-9.73c7.2,0,14.4,0,21.59,0s14.22.07,21.33,0A10,10,0,0,1,81.35,37.92C81.28,46.1,81.33,54.29,81.33,62.47Z" transform="translate(-0.5 -0.5)"/><circle class="cls-2" cx="49.5" cy="49.5" r="49"/></svg>