<svg id="Layer_1" data-name="Layer 1" xmlns="http://www.w3.org/2000/svg" viewBox="0 0 100 100"><defs><style>.cls-1{fill:#A16998;}</style></defs><title>email-logo</title><path class="cls-1" d="M50,2.5A47.5,47.5,0,1,0,97.5,50,47.5,47.5,0,0,0,50,2.5ZM83,61a2.64,2.64,0,0,1-.59.66c-3.58,3.06-7.23,6-10.84,9.07L55.74,84c-1.63,1.37-2.05,1.3-3.44-.36Q43.32,73,34.36,62.29T16.63,41.16c-1.45-1.72-1.5-2,.17-3.42Q29.48,26.91,42.24,16.2c2.23-1.87,4-1.57,6,.71L57,27.38,70.3,43.25,77,51.19c2.09,2.5,4.56,4.92,6,7.86a2.59,2.59,0,0,1,.34,1.2A1.56,1.56,0,0,1,83,61Z"/><path class="cls-1" d="M77.87,58,47.58,21.89c-.08.37-.15.54-.16.7-.39,10-.75,19.93-1.18,29.88-.05,1.11.46,1.32,1.36,1.43,4.3.57,8.6,1.18,12.89,1.77Z"/><path class="cls-1" d="M44.53,18.55l-23.6,19.8,22.71,3.17C43.94,33.8,44.23,26.35,44.53,18.55Z"/><path class="cls-1" d="M43.14,54.17c.16-2.47.07-5,.33-7.42.17-1.65-.23-2.28-1.94-2.5-6.32-.78-12.63-1.73-18.94-2.59a7,7,0,0,0-1.26.13L52.69,79.16c.25-7.25.51-14.26.76-21.37-2.92-.41-5.64-.81-8.37-1.18A2,2,0,0,1,43.14,54.17Z"/><path class="cls-1" d="M55.73,80.09l22.6-19L56.49,58.21C56.24,65.56,56,72.65,55.73,80.09Z"/><path class="cls-1" d="M50,100a50,50,0,1,1,50-50A50.06,50.06,0,0,1,50,100ZM50,1A49,49,0,1,0,99,50,49.05,49.05,0,0,0,50,1Z"/></svg>
