<svg id="Layer_1" data-name="Layer 1" xmlns="http://www.w3.org/2000/svg" viewBox="0 0 100 100"><defs><style>.cls-1{fill:#EEBC6B;}</style></defs><title>extrabed-icon</title><path class="cls-1" d="M50,100a50,50,0,1,1,50-50A50.06,50.06,0,0,1,50,100ZM50,1A49,49,0,1,0,99,50,49.05,49.05,0,0,0,50,1Z"/><path class="cls-1" d="M50,2.5A47.5,47.5,0,1,0,97.5,50,47.5,47.5,0,0,0,50,2.5ZM27.37,41.44h4c1.34,0,2.67,0,4,0a2.42,2.42,0,1,1,0,4.83q-4,.06-8,0a2.38,2.38,0,0,1-2.49-2.41A2.4,2.4,0,0,1,27.37,41.44ZM24.86,53.49c.08-.85,0-1.73,0-2.58a3.63,3.63,0,0,1,3.89-3.63c3.74,0,7.49,0,11.24,0H70.27c3.74,0,4.91,1.16,4.91,4.95,0,3.4.39,2.82-2.74,2.83-7.45,0-14.91,0-22.36,0-7.88,0-15.76,0-23.65,0C25.18,55.1,24.73,54.72,24.86,53.49ZM79.78,68.06c-2.78-.06-2.26.13-2.3-2.26,0-1.29,0-2.59,0-3.88,0-.71-.26-1-1-1-.56,0-1.12,0-1.68,0H24.24c-1.76,0-1.76,0-1.76,1.8,0,1.46,0,2.93,0,4.39,0,.65-.18,1-.89.92s-1.69,0-2.68,0V66.45q0-15.84,0-31.68c0-2,.6-2.88,1.85-2.83s1.7.91,1.7,2.83c0,6.77,0,13.54,0,20.31,0,1.28.33,1.7,1.66,1.7q25.88-.06,51.73,0c1.3,0,1.71-.34,1.67-1.67-.09-3.45,0-6.9,0-10.35,0-1.44.73-2.33,1.85-2.31s1.72.83,1.72,2.29c0,7.37,0,14.74,0,22.11C81.08,67.88,80.68,68.08,79.78,68.06Z"/></svg>
