<svg id="Layer_1" data-name="Layer 1" xmlns="http://www.w3.org/2000/svg" viewBox="0 0 99 99"><defs><style>.cls-1{fill:#3b5a9a;}.cls-2{fill:none;stroke:#3b5a9a;stroke-miterlimit:10;}</style></defs><title>facebook-icon</title><path class="cls-1" d="M50,2.5A47.5,47.5,0,1,0,97.5,50,47.5,47.5,0,0,0,50,2.5ZM74.61,71.9a2.71,2.71,0,0,1-2.71,2.71H59.35V55.55h6.4l1-7.43H59.35V43.38c0-2.15.6-3.62,3.68-3.62H67V33.12a49.66,49.66,0,0,0-5.74-.3c-5.67,0-9.55,3.46-9.55,9.82v5.48H45.27v7.43h6.41V74.61H28.1a2.71,2.71,0,0,1-2.71-2.71V28.1a2.71,2.71,0,0,1,2.71-2.71H71.9a2.71,2.71,0,0,1,2.71,2.71Z" transform="translate(-0.5 -0.5)"/><circle class="cls-2" cx="49.5" cy="49.5" r="49"/></svg>