<?xml version="1.0" encoding="UTF-8" standalone="no"?>
<!DOCTYPE svg PUBLIC "-//W3C//DTD SVG 1.1//EN" "http://www.w3.org/Graphics/SVG/1.1/DTD/svg11.dtd">
<svg version="1.1" xmlns="http://www.w3.org/2000/svg" xmlns:xlink="http://www.w3.org/1999/xlink" preserveAspectRatio="xMidYMid meet" viewBox="0 0 640 640" width="640" height="640"><defs><path d="M320 3.23C145.05 3.23 3.23 145.05 3.23 320C3.23 494.95 145.05 636.77 320 636.77C494.95 636.77 636.77 494.95 636.77 320C636.77 145.05 494.95 3.23 320 3.23Z" id="c2p3dE0Ng"></path><path d="M627.45 320.62C627.45 490.1 489.86 627.69 320.38 627.69C150.9 627.69 13.31 490.1 13.31 320.62C13.31 151.14 150.9 13.55 320.38 13.55C489.86 13.55 627.45 151.14 627.45 320.62Z" id="a2QPys9IMT"></path><path d="M328.28 123.26L331.93 123.26L335.43 123.26L338.77 123.27L341.96 123.27L345 123.28L347.91 123.29L350.69 123.3L353.34 123.31L355.87 123.32L358.28 123.33L360.59 123.35L362.8 123.36L364.9 123.38L366.92 123.4L368.85 123.42L370.7 123.45L372.48 123.47L374.19 123.5L375.84 123.53L377.43 123.56L378.97 123.59L380.46 123.62L381.92 123.66L383.35 123.7L384.75 123.74L386.12 123.78L387.48 123.83L388.83 123.87L390.18 123.92L391.53 123.97L392.89 124.03L394.26 124.08L395.65 124.14L397.07 124.2L398.51 124.27L400 124.33L401.52 124.4L403.1 124.48L404.69 124.55L406.25 124.64L407.79 124.74L409.31 124.84L410.8 124.95L412.27 125.07L413.71 125.2L415.14 125.34L416.54 125.49L417.92 125.64L419.28 125.8L420.62 125.97L421.94 126.15L423.24 126.34L424.52 126.53L425.79 126.74L427.03 126.95L428.26 127.17L429.47 127.39L430.66 127.62L431.84 127.86L433 128.11L434.15 128.37L435.28 128.63L436.4 128.9L437.5 129.18L438.59 129.46L439.67 129.75L440.73 130.05L441.79 130.36L442.83 130.67L443.86 130.99L444.88 131.31L445.89 131.64L446.89 131.98L447.87 132.32L448.86 132.68L449.83 133.03L450.79 133.4L451.75 133.77L452.74 134.15L453.72 134.55L454.69 134.95L455.65 135.36L456.61 135.78L457.56 136.2L458.5 136.63L459.44 137.07L460.38 137.52L461.3 137.98L462.22 138.44L463.14 138.92L464.05 139.4L464.95 139.9L465.85 140.4L466.74 140.92L467.64 141.44L468.52 141.97L469.4 142.52L470.28 143.08L471.15 143.65L472.02 144.22L472.89 144.82L473.75 145.42L474.61 146.04L475.47 146.66L476.33 147.3L477.18 147.96L478.03 148.63L478.88 149.31L479.72 150L480.57 150.71L481.41 151.43L482.25 152.17L483.09 152.92L483.93 153.69L484.77 154.47L485.61 155.27L486.44 156.08L487.28 156.91L488.1 157.74L488.91 158.57L489.7 159.41L490.48 160.24L491.24 161.08L491.99 161.91L492.72 162.75L493.44 163.59L494.15 164.44L494.84 165.28L495.52 166.13L496.18 166.98L496.83 167.83L497.47 168.68L498.1 169.54L498.71 170.4L499.31 171.26L499.9 172.13L500.48 173L501.04 173.87L501.6 174.75L502.14 175.63L502.68 176.52L503.2 177.41L503.71 178.3L504.22 179.2L504.71 180.1L505.19 181.01L505.67 181.93L506.13 182.84L506.59 183.77L507.04 184.7L507.48 185.64L507.91 186.58L508.33 187.52L508.75 188.48L509.16 189.44L509.56 190.41L509.96 191.38L510.34 192.36L510.71 193.32L511.07 194.28L511.42 195.25L511.77 196.24L512.11 197.23L512.44 198.22L512.77 199.23L513.09 200.25L513.41 201.28L513.72 202.32L514.03 203.38L514.32 204.44L514.61 205.52L514.9 206.61L515.17 207.71L515.45 208.83L515.71 209.96L515.97 211.11L516.21 212.27L516.46 213.45L516.69 214.64L516.92 215.85L517.14 217.08L517.35 218.32L517.55 219.59L517.75 220.87L517.94 222.17L518.12 223.49L518.29 224.83L518.46 226.19L518.61 227.57L518.76 228.97L518.9 230.4L519.03 231.84L519.16 233.31L519.27 234.81L519.37 236.32L519.47 237.86L519.56 239.42L519.63 241.01L519.71 242.59L519.78 244.11L519.84 245.6L519.91 247.04L519.97 248.46L520.03 249.85L520.08 251.22L520.14 252.58L520.19 253.93L520.24 255.28L520.29 256.63L520.33 257.99L520.37 259.37L520.41 260.76L520.45 262.19L520.49 263.65L520.52 265.14L520.55 266.68L520.58 268.27L520.61 269.92L520.64 271.63L520.66 273.41L520.69 275.26L520.71 277.19L520.73 279.21L520.75 281.32L520.76 283.52L520.78 285.83L520.79 288.24L520.8 290.77L520.81 293.42L520.82 296.2L520.83 299.11L520.84 302.15L520.84 305.34L520.85 308.68L520.85 312.18L520.86 315.83L520.86 319.65L520.86 323.65L520.86 327.64L520.86 331.46L520.85 335.12L520.85 338.61L520.84 341.95L520.84 345.14L520.83 348.19L520.82 351.1L520.81 353.87L520.8 356.52L520.79 359.05L520.78 361.47L520.76 363.78L520.75 365.98L520.73 368.09L520.71 370.1L520.69 372.03L520.66 373.89L520.64 375.66L520.61 377.37L520.58 379.02L520.55 380.61L520.52 382.15L520.49 383.65L520.45 385.11L520.41 386.53L520.37 387.93L520.33 389.31L520.29 390.67L520.24 392.02L520.19 393.37L520.14 394.72L520.08 396.07L520.03 397.44L519.97 398.83L519.91 400.25L519.84 401.7L519.78 403.18L519.71 404.71L519.63 406.28L519.56 407.87L519.47 409.44L519.37 410.97L519.27 412.49L519.16 413.98L519.04 415.45L518.91 416.9L518.77 418.32L518.62 419.72L518.47 421.1L518.31 422.46L518.14 423.8L517.96 425.12L517.77 426.43L517.58 427.71L517.37 428.97L517.16 430.22L516.95 431.44L516.72 432.65L516.49 433.85L516.25 435.03L516 436.19L515.74 437.33L515.48 438.47L515.21 439.58L514.93 440.69L514.65 441.78L514.36 442.85L514.06 443.92L513.76 444.97L513.44 446.01L513.13 447.04L512.8 448.06L512.47 449.07L512.13 450.07L511.79 451.06L511.43 452.04L511.08 453.01L510.71 453.98L510.34 454.93L509.96 455.92L509.56 456.9L509.16 457.87L508.75 458.84L508.33 459.79L507.91 460.74L507.48 461.69L507.04 462.63L506.59 463.56L506.13 464.49L505.67 465.41L505.19 466.32L504.71 467.23L504.21 468.14L503.71 469.03L503.19 469.93L502.67 470.82L502.14 471.71L501.59 472.59L501.03 473.46L500.47 474.34L499.89 475.21L499.29 476.07L498.69 476.94L498.08 477.8L497.45 478.66L496.81 479.51L496.15 480.36L495.49 481.21L494.8 482.06L494.11 482.91L493.4 483.75L492.68 484.59L491.94 485.44L491.19 486.28L490.42 487.11L489.64 487.95L488.84 488.79L488.03 489.63L487.2 490.47L486.36 491.3L485.53 492.11L484.69 492.91L483.85 493.69L483.01 494.46L482.17 495.21L481.33 495.94L480.48 496.67L479.64 497.38L478.79 498.07L477.95 498.75L477.1 499.42L476.24 500.07L475.39 500.71L474.53 501.34L473.67 501.96L472.81 502.56L471.94 503.15L471.07 503.73L470.2 504.3L469.32 504.86L468.44 505.4L467.55 505.94L466.66 506.46L465.77 506.97L464.87 507.48L463.96 507.97L463.06 508.46L462.14 508.93L461.22 509.4L460.29 509.86L459.36 510.3L458.42 510.74L457.48 511.18L456.53 511.6L455.57 512.02L454.61 512.43L453.63 512.83L452.65 513.22L451.67 513.61L450.71 513.97L449.75 514.33L448.77 514.69L447.79 515.03L446.8 515.37L445.8 515.71L444.8 516.04L443.78 516.36L442.75 516.68L441.71 516.99L440.65 517.29L439.59 517.59L438.51 517.88L437.42 518.16L436.32 518.44L435.2 518.71L434.07 518.97L432.92 519.23L431.76 519.48L430.58 519.72L429.39 519.96L428.18 520.18L426.95 520.4L425.7 520.62L424.44 520.82L423.16 521.02L421.86 521.21L420.54 521.39L419.2 521.56L417.84 521.72L416.46 521.88L415.05 522.03L413.63 522.17L412.18 522.3L410.72 522.42L409.22 522.53L407.71 522.64L406.17 522.74L404.61 522.82L403.02 522.9L401.44 522.97L399.91 523.04L398.43 523.11L396.98 523.17L395.57 523.23L394.18 523.29L392.81 523.35L391.45 523.4L390.1 523.45L388.75 523.5L387.4 523.55L386.04 523.6L384.66 523.64L383.27 523.68L381.84 523.72L380.38 523.75L378.89 523.79L377.35 523.82L375.75 523.85L374.11 523.88L372.4 523.91L370.62 523.93L368.77 523.95L366.84 523.97L364.82 523.99L362.71 524.01L360.51 524.03L358.2 524.04L355.79 524.06L353.26 524.07L350.61 524.08L347.83 524.09L344.92 524.1L341.88 524.1L338.69 524.11L335.35 524.12L331.85 524.12L328.2 524.12L324.38 524.12L320.38 524.12L316.39 524.12L312.57 524.12L308.91 524.12L305.42 524.12L302.08 524.11L298.89 524.1L295.84 524.1L292.93 524.09L290.16 524.08L287.51 524.07L284.98 524.06L282.56 524.04L280.25 524.03L278.05 524.01L275.94 523.99L273.93 523.97L272 523.95L270.14 523.93L268.37 523.91L266.66 523.88L265.01 523.85L263.42 523.82L261.88 523.79L260.38 523.75L258.92 523.72L257.5 523.68L256.1 523.64L254.72 523.6L253.36 523.55L252.01 523.5L250.66 523.45L249.31 523.4L247.96 523.35L246.59 523.29L245.19 523.23L243.78 523.17L242.33 523.11L240.85 523.04L239.32 522.97L237.75 522.9L236.16 522.82L234.59 522.74L233.05 522.64L231.54 522.54L230.05 522.42L228.58 522.3L227.13 522.17L225.71 522.04L224.31 521.89L222.92 521.74L221.56 521.57L220.22 521.4L218.9 521.22L217.6 521.04L216.32 520.84L215.06 520.64L213.81 520.43L212.59 520.21L211.38 519.99L210.18 519.75L209 519.51L207.84 519.26L206.69 519.01L205.56 518.75L204.45 518.48L203.34 518.2L202.25 517.92L201.17 517.62L200.11 517.33L199.06 517.02L198.02 516.71L196.99 516.39L195.97 516.07L194.96 515.73L193.96 515.4L192.97 515.05L191.99 514.7L191.02 514.34L190.05 513.98L189.09 513.61L188.11 513.22L187.13 512.83L186.16 512.43L185.19 512.02L184.24 511.6L183.28 511.18L182.34 510.74L181.4 510.3L180.47 509.86L179.54 509.4L178.62 508.93L177.71 508.46L176.8 507.97L175.89 507.48L174.99 506.97L174.1 506.46L173.21 505.94L172.32 505.4L171.44 504.86L170.56 504.3L169.69 503.73L168.82 503.15L167.95 502.56L167.09 501.96L166.23 501.34L165.37 500.71L164.52 500.07L163.67 499.42L162.82 498.75L161.97 498.07L161.12 497.38L160.28 496.67L159.44 495.94L158.59 495.21L157.75 494.46L156.91 493.69L156.08 492.91L155.24 492.11L154.4 491.3L153.56 490.47L152.73 489.63L151.92 488.79L151.12 487.95L150.34 487.11L149.57 486.28L148.82 485.44L148.08 484.59L147.36 483.75L146.65 482.91L145.96 482.06L145.28 481.21L144.61 480.36L143.96 479.51L143.32 478.66L142.69 477.8L142.07 476.94L141.47 476.07L140.88 475.21L140.3 474.34L139.73 473.46L139.17 472.59L138.63 471.71L138.09 470.82L137.57 469.93L137.05 469.03L136.55 468.14L136.06 467.23L135.57 466.32L135.1 465.41L134.63 464.49L134.17 463.56L133.73 462.63L133.29 461.69L132.85 460.74L132.43 459.79L132.01 458.84L131.6 457.87L131.2 456.9L130.81 455.92L130.42 454.93L130.05 453.98L129.7 453.01L129.34 452.04L129 451.06L128.66 450.07L128.32 449.07L127.99 448.06L127.67 447.04L127.35 446.01L127.04 444.97L126.74 443.92L126.44 442.85L126.15 441.78L125.87 440.69L125.59 439.58L125.32 438.47L125.05 437.33L124.8 436.19L124.55 435.03L124.31 433.85L124.07 432.65L123.84 431.44L123.63 430.22L123.41 428.97L123.21 427.71L123.01 426.43L122.82 425.12L122.64 423.8L122.47 422.46L122.31 421.1L122.15 419.72L122 418.32L121.86 416.9L121.73 415.45L121.61 413.98L121.49 412.49L121.39 410.97L121.29 409.44L121.21 407.87L121.13 406.28L121.06 404.71L120.99 403.18L120.92 401.7L120.86 400.25L120.8 398.83L120.74 397.44L120.68 396.07L120.63 394.72L120.57 393.37L120.53 392.02L120.48 390.67L120.43 389.31L120.39 387.93L120.35 386.53L120.31 385.11L120.28 383.65L120.24 382.15L120.21 380.61L120.18 379.02L120.15 377.37L120.12 375.66L120.1 373.89L120.08 372.03L120.05 370.1L120.04 368.09L120.02 365.98L120 363.78L119.99 361.47L119.97 359.05L119.96 356.52L119.95 353.87L119.94 351.1L119.93 348.19L119.92 345.14L119.92 341.95L119.91 338.61L119.91 335.12L119.91 331.46L119.91 327.64L119.91 323.65L119.91 319.65L119.91 315.83L119.91 312.18L119.91 308.68L119.92 305.34L119.92 302.15L119.93 299.11L119.94 296.2L119.95 293.42L119.96 290.77L119.97 288.24L119.99 285.83L120 283.52L120.02 281.32L120.04 279.21L120.05 277.19L120.08 275.26L120.1 273.41L120.12 271.63L120.15 269.92L120.18 268.27L120.21 266.68L120.24 265.14L120.28 263.65L120.31 262.19L120.35 260.76L120.39 259.37L120.43 257.99L120.48 256.63L120.53 255.28L120.57 253.93L120.63 252.58L120.68 251.22L120.74 249.85L120.8 248.46L120.86 247.04L120.92 245.6L120.99 244.11L121.06 242.59L121.13 241.01L121.21 239.42L121.29 237.86L121.39 236.32L121.49 234.81L121.6 233.31L121.73 231.84L121.86 230.4L121.99 228.97L122.14 227.57L122.29 226.19L122.46 224.83L122.63 223.49L122.81 222.17L122.99 220.87L123.19 219.59L123.39 218.32L123.6 217.08L123.82 215.85L124.04 214.64L124.28 213.45L124.52 212.27L124.76 211.11L125.02 209.96L125.28 208.83L125.55 207.71L125.83 206.61L126.11 205.52L126.4 204.44L126.7 203.38L127.01 202.32L127.32 201.28L127.64 200.25L127.96 199.23L128.29 198.22L128.63 197.23L128.98 196.24L129.33 195.25L129.69 194.28L130.05 193.32L130.42 192.36L130.81 191.38L131.2 190.41L131.6 189.44L132.01 188.48L132.43 187.52L132.85 186.58L133.29 185.64L133.73 184.7L134.17 183.77L134.63 182.84L135.1 181.93L135.57 181.01L136.06 180.1L136.55 179.2L137.05 178.3L137.57 177.41L138.09 176.52L138.63 175.63L139.17 174.75L139.73 173.87L140.3 173L140.88 172.13L141.47 171.26L142.07 170.4L142.69 169.54L143.32 168.68L143.96 167.83L144.61 166.98L145.28 166.13L145.96 165.28L146.65 164.44L147.36 163.59L148.08 162.75L148.82 161.91L149.57 161.08L150.34 160.24L151.12 159.41L151.92 158.57L152.73 157.74L153.56 156.91L154.4 156.08L155.24 155.27L156.08 154.47L156.91 153.69L157.75 152.92L158.59 152.17L159.44 151.43L160.28 150.71L161.12 150L161.97 149.31L162.82 148.63L163.67 147.96L164.52 147.3L165.37 146.66L166.23 146.04L167.09 145.42L167.95 144.82L168.82 144.22L169.69 143.65L170.56 143.08L171.44 142.52L172.32 141.97L173.21 141.44L174.1 140.92L174.99 140.4L175.89 139.9L176.8 139.4L177.71 138.92L178.62 138.44L179.54 137.98L180.47 137.52L181.4 137.07L182.34 136.63L183.28 136.2L184.24 135.78L185.19 135.36L186.16 134.95L187.13 134.55L188.11 134.15L189.09 133.77L190.05 133.4L191.02 133.03L191.99 132.67L192.97 132.32L193.96 131.98L194.96 131.64L195.97 131.3L196.99 130.98L198.02 130.66L199.06 130.34L200.11 130.04L201.18 129.74L202.25 129.44L203.35 129.16L204.45 128.88L205.57 128.61L206.7 128.34L207.85 128.09L209.01 127.84L210.19 127.59L211.39 127.36L212.6 127.13L213.83 126.91L215.08 126.7L216.34 126.5L217.63 126.3L218.93 126.12L220.25 125.94L221.6 125.77L222.96 125.61L224.34 125.45L225.75 125.31L227.18 125.17L228.63 125.05L230.1 124.93L231.6 124.82L233.12 124.72L234.66 124.63L236.23 124.55L237.83 124.48L239.4 124.4L240.93 124.33L242.41 124.27L243.86 124.2L245.28 124.14L246.67 124.08L248.04 124.03L249.4 123.97L250.74 123.92L252.09 123.87L253.44 123.83L254.8 123.78L256.18 123.74L257.58 123.7L259 123.66L260.46 123.62L261.96 123.59L263.5 123.56L265.09 123.53L266.74 123.5L268.45 123.47L270.23 123.45L272.08 123.42L274.01 123.4L276.02 123.38L278.13 123.36L280.34 123.35L282.64 123.33L285.06 123.32L287.59 123.31L290.24 123.3L293.01 123.29L295.92 123.28L298.97 123.27L302.16 123.27L305.5 123.26L308.99 123.26L312.65 123.26L316.47 123.25L320.46 123.25L324.46 123.25L328.28 123.26ZM312.78 159.28L309.19 159.28L305.75 159.28L302.48 159.28L299.35 159.29L296.36 159.29L293.5 159.3L290.78 159.31L288.19 159.31L285.71 159.32L283.34 159.34L281.09 159.35L278.93 159.36L276.87 159.38L274.9 159.39L273.01 159.41L271.2 159.43L269.47 159.45L267.8 159.48L266.19 159.5L264.64 159.53L263.13 159.56L261.67 159.59L260.25 159.62L258.85 159.66L257.49 159.7L256.14 159.74L254.81 159.78L253.49 159.82L252.17 159.87L250.85 159.92L249.52 159.97L248.17 160.03L246.8 160.09L245.41 160.15L243.98 160.21L242.52 160.27L241.01 160.34L239.46 160.41L238.01 160.49L236.59 160.57L235.21 160.66L233.85 160.75L232.53 160.86L231.24 160.97L229.98 161.09L228.75 161.21L227.56 161.35L226.38 161.49L225.24 161.63L224.13 161.78L223.04 161.94L221.98 162.1L220.95 162.27L219.94 162.44L218.96 162.62L218 162.8L217.07 162.99L216.16 163.18L215.28 163.37L214.41 163.56L213.57 163.76L212.75 163.96L211.96 164.17L211.18 164.38L210.43 164.58L209.69 164.79L208.97 165L208.28 165.22L207.6 165.43L206.93 165.64L206.29 165.86L205.66 166.07L205.05 166.29L204.45 166.5L203.87 166.71L203.31 166.92L202.75 167.13L202.22 167.34L201.52 167.62L200.83 167.9L200.15 168.18L199.48 168.46L198.82 168.75L198.17 169.04L197.53 169.34L196.89 169.64L196.26 169.94L195.64 170.25L195.03 170.56L194.43 170.87L193.83 171.19L193.23 171.52L192.65 171.85L192.07 172.19L191.49 172.53L190.92 172.87L190.36 173.23L189.8 173.59L189.24 173.95L188.69 174.32L188.14 174.7L187.6 175.09L187.06 175.48L186.52 175.88L185.99 176.29L185.45 176.7L184.92 177.12L184.39 177.55L183.87 177.99L183.34 178.44L182.82 178.89L182.29 179.36L181.77 179.83L181.25 180.31L180.73 180.8L180.2 181.31L179.68 181.82L179.15 182.34L178.63 182.86L178.12 183.39L177.62 183.91L177.13 184.43L176.65 184.96L176.17 185.48L175.71 186L175.25 186.53L174.81 187.05L174.37 187.58L173.94 188.11L173.52 188.64L173.1 189.17L172.69 189.71L172.29 190.24L171.9 190.78L171.52 191.33L171.14 191.88L170.77 192.43L170.4 192.98L170.04 193.54L169.69 194.11L169.34 194.68L169 195.25L168.67 195.83L168.33 196.42L168.01 197.01L167.69 197.61L167.37 198.22L167.06 198.83L166.76 199.45L166.45 200.08L166.15 200.71L165.86 201.35L165.57 202.01L165.28 202.67L164.99 203.34L164.71 204.01L164.43 204.7L164.16 205.4L163.95 205.94L163.74 206.49L163.53 207.06L163.31 207.64L163.1 208.23L162.89 208.85L162.67 209.47L162.46 210.12L162.25 210.78L162.03 211.46L161.82 212.16L161.61 212.87L161.4 213.61L161.19 214.37L160.98 215.14L160.78 215.94L160.58 216.76L160.38 217.6L160.18 218.46L159.99 219.35L159.8 220.25L159.62 221.19L159.44 222.14L159.26 223.13L159.09 224.13L158.92 225.17L158.76 226.23L158.6 227.31L158.45 228.43L158.3 229.57L158.16 230.74L158.03 231.94L157.9 233.17L157.78 234.43L157.67 235.72L157.57 237.04L157.47 238.39L157.38 239.78L157.3 241.19L157.23 242.64L157.16 244.2L157.1 245.71L157.04 247.17L156.98 248.59L156.92 249.99L156.87 251.35L156.82 252.7L156.77 254.03L156.72 255.35L156.67 256.67L156.63 258L156.59 259.33L156.55 260.67L156.51 262.04L156.48 263.43L156.44 264.85L156.41 266.32L156.38 267.82L156.35 269.37L156.32 270.98L156.3 272.65L156.28 274.39L156.25 276.2L156.23 278.08L156.21 280.05L156.2 282.11L156.18 284.27L156.17 286.53L156.15 288.89L156.14 291.37L156.13 293.97L156.12 296.69L156.11 299.54L156.11 302.53L156.1 305.66L156.1 308.94L156.09 312.37L156.09 315.96L156.09 319.72L156.09 323.65L156.09 327.58L156.09 331.33L156.09 334.92L156.1 338.36L156.1 341.63L156.1 344.77L156.11 347.75L156.11 350.61L156.12 353.33L156.13 355.92L156.14 358.4L156.15 360.77L156.16 363.03L156.18 365.18L156.19 367.24L156.21 369.21L156.23 371.1L156.25 372.91L156.27 374.64L156.29 376.31L156.32 377.92L156.35 379.48L156.38 380.98L156.41 382.44L156.44 383.86L156.48 385.26L156.51 386.62L156.55 387.97L156.59 389.3L156.64 390.62L156.69 391.94L156.74 393.26L156.79 394.59L156.84 395.94L156.9 397.31L156.96 398.7L157.02 400.13L157.09 401.59L157.16 403.1L157.23 404.65L157.3 406.1L157.38 407.52L157.47 408.9L157.57 410.26L157.67 411.58L157.78 412.87L157.9 414.13L158.03 415.36L158.16 416.56L158.3 417.73L158.45 418.87L158.6 419.98L158.76 421.07L158.92 422.13L159.09 423.16L159.26 424.17L159.44 425.15L159.62 426.11L159.8 427.04L159.99 427.95L160.18 428.84L160.38 429.7L160.58 430.54L160.78 431.36L160.98 432.15L161.19 432.93L161.4 433.68L161.61 434.42L161.82 435.14L162.03 435.84L162.25 436.52L162.46 437.18L162.67 437.82L162.89 438.45L163.1 439.06L163.31 439.66L163.53 440.24L163.74 440.81L163.95 441.36L164.16 441.9L164.43 442.59L164.71 443.28L164.99 443.96L165.28 444.63L165.57 445.29L165.86 445.94L166.15 446.58L166.45 447.22L166.76 447.85L167.06 448.47L167.37 449.08L167.69 449.69L168.01 450.28L168.33 450.88L168.67 451.46L169 452.04L169.34 452.62L169.69 453.19L170.04 453.75L170.4 454.31L170.77 454.87L171.14 455.42L171.52 455.97L171.9 456.51L172.29 457.05L172.69 457.59L173.1 458.12L173.52 458.66L173.94 459.19L174.37 459.72L174.81 460.24L175.25 460.77L175.71 461.29L176.17 461.82L176.65 462.34L177.13 462.86L177.62 463.39L178.12 463.91L178.63 464.43L179.15 464.96L179.68 465.48L180.2 465.99L180.73 466.49L181.25 466.98L181.77 467.46L182.29 467.94L182.82 468.4L183.34 468.86L183.87 469.3L184.39 469.74L184.92 470.17L185.45 470.59L185.99 471.01L186.52 471.42L187.06 471.82L187.6 472.21L188.14 472.59L188.69 472.97L189.24 473.34L189.8 473.71L190.36 474.07L190.92 474.42L191.49 474.77L192.07 475.11L192.65 475.45L193.23 475.78L193.83 476.1L194.43 476.42L195.03 476.74L195.64 477.05L196.26 477.36L196.89 477.66L197.53 477.96L198.17 478.25L198.82 478.54L199.48 478.83L200.15 479.12L200.83 479.4L201.52 479.68L202.22 479.95L202.75 480.16L203.31 480.37L203.87 480.58L204.45 480.8L205.05 481.01L205.66 481.22L206.29 481.44L206.93 481.65L207.6 481.87L208.28 482.08L208.97 482.29L209.69 482.5L210.43 482.71L211.18 482.92L211.96 483.13L212.75 483.33L213.57 483.53L214.41 483.73L215.28 483.93L216.16 484.12L217.07 484.31L218 484.49L218.96 484.68L219.94 484.85L220.95 485.03L221.98 485.19L223.04 485.36L224.13 485.51L225.24 485.66L226.38 485.81L227.56 485.95L228.75 486.08L229.98 486.21L231.24 486.33L232.53 486.44L233.85 486.54L235.21 486.64L236.59 486.73L238.01 486.81L239.46 486.88L241.01 486.95L242.52 487.01L243.98 487.07L245.41 487.13L246.8 487.19L248.17 487.24L249.52 487.29L250.85 487.34L252.17 487.39L253.49 487.44L254.81 487.48L256.14 487.52L257.49 487.56L258.85 487.6L260.25 487.64L261.67 487.67L263.13 487.7L264.64 487.73L266.19 487.76L267.8 487.79L269.47 487.81L271.2 487.84L273.01 487.86L274.9 487.88L276.87 487.9L278.93 487.91L281.09 487.93L283.34 487.94L285.71 487.96L288.19 487.97L290.78 487.98L293.5 487.99L296.36 488L299.35 488L302.48 488.01L305.75 488.01L309.19 488.02L312.78 488.02L316.53 488.02L320.46 488.02L324.39 488.02L328.15 488.02L331.74 488.02L335.17 488.02L338.45 488.01L341.58 488.01L344.57 488L347.42 488L350.14 487.99L352.74 487.98L355.22 487.97L357.58 487.96L359.84 487.95L362 487.93L364.06 487.92L366.03 487.9L367.91 487.88L369.72 487.86L371.46 487.84L373.13 487.82L374.74 487.79L376.29 487.76L377.8 487.74L379.26 487.7L380.68 487.67L382.07 487.64L383.44 487.6L384.78 487.56L386.11 487.52L387.44 487.47L388.76 487.42L390.08 487.37L391.41 487.32L392.76 487.27L394.12 487.21L395.52 487.15L396.94 487.09L398.41 487.02L399.91 486.95L401.47 486.88L402.92 486.81L404.34 486.73L405.72 486.64L407.07 486.54L408.39 486.44L409.68 486.33L410.94 486.21L412.17 486.08L413.37 485.95L414.54 485.81L415.68 485.66L416.8 485.51L417.88 485.36L418.94 485.19L419.98 485.03L420.99 484.85L421.97 484.68L422.92 484.49L423.86 484.31L424.77 484.12L425.65 483.93L426.51 483.73L427.35 483.53L428.17 483.33L428.97 483.13L429.74 482.92L430.5 482.71L431.24 482.5L431.95 482.29L432.65 482.08L433.33 481.87L433.99 481.65L434.64 481.44L435.27 481.22L435.88 481.01L436.47 480.8L437.05 480.58L437.62 480.37L438.17 480.16L438.71 479.95L439.41 479.68L440.1 479.4L440.78 479.12L441.44 478.83L442.11 478.54L442.76 478.25L443.4 477.96L444.04 477.66L444.66 477.36L445.28 477.05L445.9 476.74L446.5 476.42L447.1 476.1L447.69 475.78L448.28 475.45L448.86 475.11L449.43 474.77L450 474.42L450.57 474.07L451.13 473.71L451.68 473.34L452.24 472.97L452.78 472.59L453.33 472.21L453.87 471.82L454.41 471.42L454.94 471.01L455.47 470.59L456 470.17L456.53 469.74L457.06 469.3L457.58 468.86L458.11 468.4L458.63 467.94L459.16 467.46L459.68 466.98L460.2 466.49L460.72 465.99L461.25 465.48L461.77 464.96L462.29 464.43L462.81 463.91L463.31 463.39L463.8 462.86L464.28 462.34L464.75 461.82L465.22 461.29L465.67 460.77L466.12 460.24L466.56 459.72L466.99 459.19L467.41 458.66L467.82 458.12L468.23 457.59L468.63 457.05L469.02 456.51L469.41 455.97L469.79 455.42L470.16 454.87L470.52 454.31L470.88 453.75L471.24 453.19L471.58 452.62L471.92 452.04L472.26 451.46L472.59 450.88L472.92 450.28L473.24 449.69L473.55 449.08L473.86 448.47L474.17 447.85L474.47 447.22L474.77 446.58L475.07 445.94L475.36 445.29L475.65 444.63L475.93 443.96L476.21 443.28L476.49 442.59L476.77 441.9L476.98 441.36L477.19 440.81L477.4 440.24L477.61 439.66L477.83 439.06L478.04 438.45L478.25 437.82L478.47 437.18L478.68 436.52L478.89 435.84L479.11 435.14L479.32 434.42L479.53 433.68L479.74 432.93L479.94 432.15L480.15 431.36L480.35 430.54L480.55 429.7L480.74 428.84L480.94 427.95L481.12 427.04L481.31 426.11L481.49 425.15L481.67 424.17L481.84 423.16L482.01 422.13L482.17 421.07L482.33 419.98L482.48 418.87L482.62 417.73L482.76 416.56L482.9 415.36L483.02 414.13L483.14 412.87L483.25 411.58L483.36 410.26L483.46 408.9L483.54 407.52L483.62 406.1L483.7 404.65L483.76 403.1L483.83 401.59L483.89 400.13L483.95 398.7L484 397.31L484.06 395.94L484.11 394.59L484.16 393.26L484.21 391.94L484.25 390.62L484.3 389.3L484.34 387.97L484.38 386.62L484.41 385.26L484.45 383.86L484.48 382.44L484.52 380.98L484.55 379.48L484.58 377.92L484.6 376.31L484.63 374.64L484.65 372.91L484.67 371.1L484.69 369.21L484.71 367.24L484.73 365.18L484.75 363.03L484.76 360.77L484.77 358.4L484.78 355.92L484.79 353.33L484.8 350.61L484.81 347.75L484.82 344.77L484.82 341.63L484.83 338.36L484.83 334.92L484.83 331.33L484.84 327.58L484.84 323.65L484.84 319.72L484.84 315.96L484.83 312.37L484.83 308.94L484.83 305.66L484.82 302.53L484.82 299.54L484.81 296.69L484.8 293.97L484.8 291.37L484.79 288.89L484.78 286.53L484.76 284.27L484.75 282.11L484.73 280.05L484.72 278.08L484.7 276.2L484.68 274.39L484.66 272.65L484.63 270.98L484.61 269.37L484.58 267.82L484.55 266.32L484.52 264.85L484.49 263.43L484.45 262.04L484.41 260.67L484.37 259.33L484.33 258L484.29 256.67L484.24 255.35L484.19 254.03L484.14 252.7L484.08 251.35L484.03 249.99L483.97 248.59L483.9 247.17L483.84 245.71L483.77 244.2L483.7 242.64L483.62 241.19L483.54 239.78L483.46 238.39L483.36 237.04L483.25 235.72L483.14 234.43L483.02 233.17L482.9 231.94L482.76 230.74L482.62 229.57L482.48 228.43L482.33 227.31L482.17 226.23L482.01 225.17L481.84 224.13L481.67 223.13L481.49 222.14L481.31 221.19L481.12 220.25L480.94 219.35L480.74 218.46L480.55 217.6L480.35 216.76L480.15 215.94L479.94 215.14L479.74 214.37L479.53 213.61L479.32 212.87L479.11 212.16L478.89 211.46L478.68 210.78L478.47 210.12L478.25 209.47L478.04 208.85L477.83 208.23L477.61 207.64L477.4 207.06L477.19 206.49L476.98 205.94L476.77 205.4L476.49 204.7L476.21 204.01L475.93 203.34L475.65 202.67L475.36 202.01L475.07 201.35L474.77 200.71L474.47 200.08L474.17 199.45L473.86 198.83L473.55 198.22L473.24 197.61L472.92 197.01L472.59 196.42L472.26 195.83L471.92 195.25L471.58 194.68L471.24 194.11L470.88 193.54L470.52 192.98L470.16 192.43L469.79 191.88L469.41 191.33L469.02 190.78L468.63 190.24L468.23 189.71L467.82 189.17L467.41 188.64L466.99 188.11L466.56 187.58L466.12 187.05L465.67 186.53L465.22 186L464.75 185.48L464.28 184.96L463.8 184.43L463.31 183.91L462.81 183.39L462.29 182.86L461.77 182.34L461.25 181.82L460.72 181.31L460.2 180.8L459.68 180.31L459.16 179.83L458.63 179.36L458.11 178.89L457.58 178.44L457.06 177.99L456.53 177.55L456 177.12L455.47 176.7L454.94 176.29L454.41 175.88L453.87 175.48L453.33 175.09L452.78 174.7L452.24 174.32L451.68 173.95L451.13 173.59L450.57 173.23L450 172.87L449.43 172.53L448.86 172.19L448.28 171.85L447.69 171.52L447.1 171.19L446.5 170.87L445.9 170.56L445.28 170.25L444.66 169.94L444.04 169.64L443.4 169.34L442.76 169.04L442.11 168.75L441.44 168.46L440.78 168.18L440.1 167.9L439.41 167.62L438.71 167.34L438.17 167.13L437.62 166.92L437.05 166.71L436.47 166.5L435.88 166.29L435.27 166.07L434.64 165.86L433.99 165.64L433.33 165.43L432.65 165.22L431.95 165L431.24 164.79L430.5 164.58L429.74 164.38L428.97 164.17L428.17 163.96L427.35 163.76L426.51 163.56L425.65 163.37L424.77 163.18L423.86 162.99L422.92 162.8L421.97 162.62L420.99 162.44L419.98 162.27L418.94 162.1L417.88 161.94L416.8 161.78L415.68 161.63L414.54 161.49L413.37 161.35L412.17 161.21L410.94 161.09L409.68 160.97L408.39 160.86L407.07 160.75L405.72 160.66L404.34 160.57L402.92 160.49L401.47 160.41L399.91 160.34L398.41 160.27L396.94 160.21L395.52 160.15L394.12 160.09L392.76 160.03L391.41 159.97L390.08 159.92L388.76 159.87L387.44 159.82L386.11 159.78L384.78 159.74L383.44 159.7L382.07 159.66L380.68 159.62L379.26 159.59L377.8 159.56L376.29 159.53L374.74 159.5L373.13 159.48L371.46 159.45L369.72 159.43L367.91 159.41L366.03 159.39L364.06 159.38L362 159.36L359.84 159.35L357.58 159.34L355.22 159.32L352.74 159.31L350.14 159.31L347.42 159.3L344.57 159.29L341.58 159.29L338.45 159.28L335.17 159.28L331.74 159.28L328.15 159.28L324.39 159.27L320.46 159.27L316.53 159.27L312.78 159.28Z" id="j5kgqjtfd"></path><path d="M328.83 221.14L332.98 221.57L337.09 222.15L341.14 222.9L345.13 223.8L349.06 224.85L352.93 226.05L356.73 227.4L360.46 228.9L364.12 230.53L367.7 232.3L371.2 234.2L374.62 236.23L377.95 238.39L381.19 240.67L384.33 243.08L387.38 245.59L390.33 248.22L393.18 250.97L395.92 253.81L398.54 256.76L401.06 259.81L403.46 262.96L405.74 266.2L407.9 269.53L409.93 272.95L411.83 276.45L413.59 280.03L415.23 283.68L416.72 287.41L418.06 291.21L419.27 295.08L420.32 299.01L421.22 303L421.96 307.04L422.55 311.14L422.97 315.29L423.22 319.49L423.31 323.73L423.22 327.97L422.97 332.16L422.55 336.31L421.96 340.41L421.22 344.46L420.31 348.45L419.26 352.38L418.06 356.25L416.71 360.04L415.21 363.77L413.58 367.43L411.81 371.01L409.91 374.51L407.88 377.93L405.72 381.26L403.44 384.5L401.04 387.64L398.52 390.7L395.89 393.65L393.15 396.49L390.3 399.23L387.35 401.87L384.3 404.38L381.15 406.78L377.91 409.07L374.58 411.22L371.16 413.26L367.66 415.16L364.08 416.93L360.43 418.56L356.7 420.05L352.9 421.4L349.03 422.61L345.1 423.66L341.11 424.56L337.07 425.31L332.97 425.89L328.82 426.31L324.62 426.57L320.38 426.66L316.14 426.57L311.95 426.32L307.8 425.89L303.7 425.31L299.65 424.57L295.66 423.67L291.73 422.61L287.87 421.41L284.07 420.06L280.34 418.57L276.68 416.94L273.1 415.17L269.6 413.27L266.18 411.24L262.85 409.09L259.61 406.81L256.47 404.41L253.42 401.89L250.47 399.26L247.62 396.52L244.88 393.68L242.25 390.73L239.73 387.68L237.33 384.53L235.04 381.29L232.89 377.96L230.85 374.55L228.95 371.05L227.18 367.47L225.55 363.81L224.06 360.08L222.71 356.28L221.5 352.41L220.45 348.48L219.55 344.48L218.8 340.43L218.22 336.33L217.8 332.18L217.54 327.97L217.45 323.73L217.54 319.48L217.8 315.28L218.22 311.13L218.8 307.02L219.54 302.97L220.44 298.98L221.5 295.05L222.7 291.18L224.05 287.38L225.54 283.65L227.17 279.99L228.94 276.41L230.84 272.91L232.87 269.49L235.02 266.17L237.3 262.93L239.7 259.78L242.22 256.73L244.85 253.78L247.59 250.93L250.43 248.2L253.38 245.57L256.43 243.05L259.58 240.65L262.82 238.37L266.15 236.21L269.56 234.18L273.06 232.28L276.64 230.52L280.3 228.89L284.03 227.39L287.83 226.05L291.7 224.84L295.63 223.79L299.63 222.89L303.68 222.15L307.78 221.56L311.93 221.14L316.14 220.89L320.38 220.8L324.63 220.89L328.83 221.14ZM314.9 257.13L312.2 257.4L309.54 257.78L306.91 258.26L304.32 258.85L301.77 259.53L299.26 260.31L296.79 261.19L294.37 262.15L291.99 263.21L289.67 264.36L287.39 265.6L285.18 266.91L283.01 268.31L280.91 269.79L278.87 271.35L276.89 272.99L274.97 274.69L273.13 276.47L271.35 278.32L269.64 280.24L268.01 282.22L266.45 284.26L264.97 286.36L263.57 288.52L262.25 290.74L261.01 293.01L259.87 295.34L258.81 297.71L257.84 300.14L256.96 302.6L256.18 305.11L255.5 307.67L254.91 310.26L254.43 312.89L254.05 315.55L253.78 318.25L253.61 320.97L253.56 323.73L253.61 326.48L253.78 329.21L254.05 331.91L254.43 334.57L254.91 337.2L255.5 339.79L256.18 342.34L256.96 344.85L257.84 347.32L258.81 349.74L259.87 352.12L261.01 354.44L262.25 356.72L263.57 358.93L264.97 361.1L266.45 363.2L268.01 365.24L269.64 367.22L271.35 369.14L273.13 370.99L274.97 372.76L276.89 374.47L278.87 376.11L280.91 377.66L283.01 379.14L285.18 380.54L287.39 381.86L289.67 383.1L291.99 384.25L294.37 385.3L296.79 386.27L299.26 387.15L301.77 387.93L304.32 388.61L306.91 389.2L309.54 389.68L312.2 390.06L314.9 390.33L317.63 390.5L320.38 390.55L323.14 390.5L325.86 390.33L328.56 390.06L331.22 389.68L333.85 389.2L336.44 388.61L339 387.93L341.51 387.15L343.98 386.27L346.4 385.3L348.77 384.25L351.1 383.1L353.37 381.86L355.59 380.54L357.75 379.14L359.85 377.66L361.89 376.11L363.87 374.47L365.79 372.76L367.64 370.99L369.42 369.14L371.12 367.22L372.76 365.24L374.32 363.2L375.8 361.1L377.2 358.93L378.52 356.72L379.75 354.44L380.9 352.12L381.96 349.74L382.93 347.32L383.8 344.85L384.58 342.34L385.27 339.79L385.85 337.2L386.33 334.57L386.71 331.91L386.99 329.21L387.15 326.48L387.21 323.73L387.15 320.97L386.99 318.25L386.71 315.55L386.33 312.89L385.85 310.26L385.27 307.67L384.58 305.11L383.8 302.6L382.93 300.14L381.96 297.71L380.9 295.34L379.75 293.01L378.52 290.74L377.2 288.52L375.8 286.36L374.32 284.26L372.76 282.22L371.12 280.24L369.42 278.32L367.64 276.47L365.79 274.69L363.87 272.99L361.89 271.35L359.85 269.79L357.75 268.31L355.59 266.91L353.37 265.6L351.1 264.36L348.77 263.21L346.4 262.15L343.98 261.19L341.51 260.31L339 259.53L336.44 258.85L333.85 258.26L331.22 257.78L328.56 257.4L325.86 257.13L323.14 256.96L320.38 256.9L317.63 256.96L314.9 257.13Z" id="i4zRkdc7YA"></path><path d="M427.46 192.69C414.19 192.69 403.42 203.45 403.42 216.73C403.42 230 414.19 240.77 427.46 240.77C440.74 240.77 451.51 230 451.51 216.73C451.51 203.45 440.74 192.69 427.46 192.69Z" id="g1pot9eFm6"></path></defs><g><g><g><use xlink:href="#c2p3dE0Ng" opacity="1" fill="#000000" fill-opacity="0"></use><g><use xlink:href="#c2p3dE0Ng" opacity="1" fill-opacity="0" stroke="#eebc6b" stroke-width="5" stroke-opacity="1"></use></g></g><g><use xlink:href="#a2QPys9IMT" opacity="1" fill="#eebc6b" fill-opacity="1"></use></g><g><use xlink:href="#j5kgqjtfd" opacity="1" fill="#ffffff" fill-opacity="1"></use><g><use xlink:href="#j5kgqjtfd" opacity="1" fill-opacity="0" stroke="#000000" stroke-width="1" stroke-opacity="0"></use></g></g><g><use xlink:href="#i4zRkdc7YA" opacity="1" fill="#ffffff" fill-opacity="1"></use><g><use xlink:href="#i4zRkdc7YA" opacity="1" fill-opacity="0" stroke="#000000" stroke-width="1" stroke-opacity="0"></use></g></g><g><use xlink:href="#g1pot9eFm6" opacity="1" fill="#ffffff" fill-opacity="1"></use><g><use xlink:href="#g1pot9eFm6" opacity="1" fill-opacity="0" stroke="#000000" stroke-width="1" stroke-opacity="0"></use></g></g></g></g></svg>