<svg id="Layer_1" data-name="Layer 1" xmlns="http://www.w3.org/2000/svg" viewBox="0 0 100 100"><defs><style>.cls-1{fill:#e9f8c3;}</style></defs><title>parking</title><path class="cls-1" d="M50,100a50,50,0,1,1,50-50A50.06,50.06,0,0,1,50,100ZM50,1A49,49,0,1,0,99,50,49.05,49.05,0,0,0,50,1Z"/><path class="cls-1" d="M66,43.52Q64.31,38.75,62.65,34c-.51-1.46-1-1.84-2.57-1.84H39.68a2.11,2.11,0,0,0-2.26,1.6c-.52,1.49-1,3-1.55,4.46q-.94,2.68-1.86,5.39c-.24.69-.08,1.14.45,1.31a2.25,2.25,0,0,0,.73.08H64.93C66,45,66.3,44.51,66,43.52Z"/><path class="cls-1" d="M31.18,51.45a3.78,3.78,0,1,0,3.74,3.72A3.79,3.79,0,0,0,31.18,51.45Z"/><path class="cls-1" d="M68.9,51.45a3.78,3.78,0,1,0,3.68,3.77A3.78,3.78,0,0,0,68.9,51.45Z"/><path class="cls-1" d="M50,2.5A47.5,47.5,0,1,0,97.5,50,47.5,47.5,0,0,0,50,2.5ZM78.27,61.11a4.17,4.17,0,0,1-4.36,4.36c-.56,0-.74.15-.73.72,0,1.66,0,3.32,0,5a4.27,4.27,0,0,1-4.6,4.52c-.71,0-1.44,0-2.14-.08a4.1,4.1,0,0,1-3.58-4.11c0-1.74,0-3.48,0-5.22v-.76H37.19v5.73a4.22,4.22,0,0,1-4.43,4.44,13.76,13.76,0,0,1-2.57-.16A4,4,0,0,1,27,71.6c0-1.77,0-3.53,0-5.29v-.74a21,21,0,0,1-2.22-.28,4,4,0,0,1-3-3.77q0-6.51,0-13A3.66,3.66,0,0,1,24.89,45a.86.86,0,0,0,.85-.7q1.89-5.2,3.81-10.42,1.1-3,2.22-6.05a5.43,5.43,0,0,1,5.11-3.53H63.49a5.54,5.54,0,0,1,4.83,3.77q3,8.19,6,16.35a1,1,0,0,0,.56.53,3.71,3.71,0,0,1,3.37,3.87c0,3,0,6.1,0,9.16C78.28,59,78.28,60.06,78.27,61.11Z"/></svg>