<svg id="Layer_1" data-name="Layer 1" xmlns="http://www.w3.org/2000/svg" viewBox="0 0 100 100"><defs><style>.cls-1{fill:#e9f8c3;}</style></defs><title>phone-logo</title><path class="cls-1" d="M50,2.5A47.5,47.5,0,1,0,97.5,50,47.5,47.5,0,0,0,50,2.5ZM36.1,21.82a3,3,0,0,1,2.45,1.23c1.87,3.86,3.61,7.81,5.18,11.82a2.88,2.88,0,0,1-.94,2.38,13.86,13.86,0,0,1-3.19,1.66c-2.3-5.3-4.53-10.42-6.84-15.72C34,22.65,35,21.89,36.1,21.82ZM71,74.44a45.72,45.72,0,0,1-6.62,3.62c-1,.39-2.54-.2-3.72-.65-16.62-6.29-28-17.66-33.47-34.74-1-3-1.58-6.18-2.32-9.3a3.12,3.12,0,0,1,0-1.66C26,28.65,28.38,26.42,31,24.63q1.8,4,3.55,8c.85,1.95,1.72,3.9,2.45,5.9a1.88,1.88,0,0,1-.21,1.69,2,2,0,0,0-.43,2.74c3.93,7.38,8.35,14.41,15.33,19.39,1.3.93,2.53,2.44,4.5,1.24.17-.11.64.08.9.26l7.45,5.33,3.77,2.7c1,.72,2.14,1.23,2.78,2.33a.36.36,0,0,1,0,.14A.22.22,0,0,1,71,74.44Zm4.11-5.73c-.6,1-1.18,2-1.83,3a.56.56,0,0,1-.2.23.81.81,0,0,1-.27,0c-1.17,0-2.48-1.38-3.39-2-1.23-.86-2.46-1.74-3.68-2.61-2.44-1.74-4.89-3.48-7.33-5.25a1.25,1.25,0,0,1-.55-.76c-.1-1.49,2.56-3.5,4-2.92a19.11,19.11,0,0,1,3.54,1.9c1.87,1.3,3.72,2.62,5.53,4a17.18,17.18,0,0,1,4.2,4,.52.52,0,0,1,.09.2A.34.34,0,0,1,75.13,68.71Z"/><path class="cls-1" d="M50,100a50,50,0,1,1,50-50A50.06,50.06,0,0,1,50,100ZM50,1A49,49,0,1,0,99,50,49.05,49.05,0,0,0,50,1Z"/></svg>