<svg id="Layer_1" data-name="Layer 1" xmlns="http://www.w3.org/2000/svg" viewBox="0 0 100 100"><defs><style>.cls-1{fill:#e9f8c3;}</style></defs><title>wifi-icon</title><path class="cls-1" d="M50,2.5A47.5,47.5,0,1,0,97.5,50,47.5,47.5,0,0,0,50,2.5Zm-.27,70.21a6.43,6.43,0,1,1,6.72-6.32A6.49,6.49,0,0,1,49.73,72.71ZM63.48,58.86a3,3,0,0,1-4,.88,7.43,7.43,0,0,1-1-.83,12.29,12.29,0,0,0-6.22-3.15,12.17,12.17,0,0,0-9.45,2,15.61,15.61,0,0,0-1.71,1.43,3,3,0,0,1-3.34.74A3.34,3.34,0,0,1,36,56.91,2.65,2.65,0,0,1,36.9,55a18.34,18.34,0,0,1,7.28-4.48,17.93,17.93,0,0,1,7-.92,18.76,18.76,0,0,1,12,5.42A3,3,0,0,1,63.48,58.86Zm7.4-7.93A2.87,2.87,0,0,1,68.6,52a3.08,3.08,0,0,1-2.23-1,23.62,23.62,0,0,0-10.23-5.75,22.73,22.73,0,0,0-7.29-.8,23.75,23.75,0,0,0-15.42,6.8,2.92,2.92,0,0,1-4.16-.15,2.87,2.87,0,0,1-.47-3.61,9.4,9.4,0,0,1,1.52-1.57,29.71,29.71,0,0,1,20.52-7.47,29.7,29.7,0,0,1,13.41,3.61,28.36,28.36,0,0,1,6.69,5A2.92,2.92,0,0,1,70.88,50.93Zm6.43-7.29A3,3,0,0,1,74,42.91a21.5,21.5,0,0,0-1.74-1.56,34.77,34.77,0,0,0-12.42-6.62A34.8,34.8,0,0,0,26.5,42.49,5.84,5.84,0,0,1,25,43.64a3,3,0,0,1-4.08-2,2.76,2.76,0,0,1,.81-3A40.73,40.73,0,0,1,34.45,30.4a38.3,38.3,0,0,1,8.7-2.5c1.73-.28,3.49-.42,5.25-.54a30.23,30.23,0,0,1,6.79.28c1.87.3,3.74.67,5.58,1.12a36.67,36.67,0,0,1,7.76,3,39.73,39.73,0,0,1,9.87,7,2.6,2.6,0,0,1,.81,2A3.1,3.1,0,0,1,77.31,43.64Z"/><path class="cls-1" d="M50,100a50,50,0,1,1,50-50A50.06,50.06,0,0,1,50,100ZM50,1A49,49,0,1,0,99,50,49.05,49.05,0,0,0,50,1Z"/></svg>